<?xml version="1.0" encoding="UTF-8"?>
<svg width="600px" height="600px" viewBox="0 0 600 600" version="1.1" xmlns="http://www.w3.org/2000/svg">
    <style>
        @keyframes pulse {
            0% { r: 30; fill-opacity: 0.8; }
            50% { r: 35; fill-opacity: 1; }
            100% { r: 30; fill-opacity: 0.8; }
        }
        
        @keyframes pulseText {
            0% { font-size: 16px; }
            50% { font-size: 18px; }
            100% { font-size: 16px; }
        }
        
        @keyframes rotate {
            from { transform: rotate(0deg); }
            to { transform: rotate(360deg); }
        }
        
        @keyframes flash {
            0% { fill: #f44336; }
            50% { fill: #ff7043; }
            100% { fill: #f44336; }
        }
        
        @keyframes fadeInOut {
            0% { opacity: 0.3; }
            50% { opacity: 1; }
            100% { opacity: 0.3; }
        }
        
        .critical-sensor {
            animation: pulse 2s infinite, flash 2s infinite;
        }
        
        .warning-sensor {
            animation: pulse 3s infinite;
        }
        
        .critical-text {
            animation: pulseText 2s infinite;
        }
        
        .tire-rotation {
            animation: rotate 60s linear infinite;
        }
        
        .alert-box {
            animation: fadeInOut 3s infinite;
        }
    </style>

    <rect width="600" height="600" fill="#f8f9fa" />
    
    <!-- Title -->
    <text x="300" y="40" font-family="Arial" font-size="24" font-weight="bold" text-anchor="middle" fill="#333">
        Tire Status Visualization
    </text>
    <text x="300" y="70" font-family="Arial" font-size="14" text-anchor="middle" fill="#666">
        (With Animated Damage Simulation)
    </text>
    
    <!-- Tire Outline -->
    <g transform="translate(300, 300)" class="tire-rotation">
        <!-- Tire threads -->
        <g>
            <line x1="0" y1="-250" x2="0" y2="-210" stroke="#555" stroke-width="2" />
            <line x1="87" y1="-237" x2="74" y2="-201" stroke="#555" stroke-width="2" />
            <line x1="166" y1="-186" x2="141" y2="-158" stroke="#555" stroke-width="2" />
            <line x1="216" y1="-125" x2="183" y2="-106" stroke="#555" stroke-width="2" />
            <line x1="237" y1="-83" x2="201" y2="-70" stroke="#555" stroke-width="2" />
            <line x1="250" y1="0" x2="210" y2="0" stroke="#555" stroke-width="2" />
            <line x1="237" y1="83" x2="201" y2="70" stroke="#555" stroke-width="2" />
            <line x1="216" y1="125" x2="183" y2="106" stroke="#555" stroke-width="2" />
            <line x1="166" y1="186" x2="141" y2="158" stroke="#555" stroke-width="2" />
            <line x1="87" y1="237" x2="74" y2="201" stroke="#555" stroke-width="2" />
            <line x1="0" y1="250" x2="0" y2="210" stroke="#555" stroke-width="2" />
            <line x1="-87" y1="237" x2="-74" y2="201" stroke="#555" stroke-width="2" />
            <line x1="-166" y1="186" x2="-141" y2="158" stroke="#555" stroke-width="2" />
            <line x1="-216" y1="125" x2="-183" y2="106" stroke="#555" stroke-width="2" />
            <line x1="-237" y1="83" x2="-201" y2="70" stroke="#555" stroke-width="2" />
            <line x1="-250" y1="0" x2="-210" y2="0" stroke="#555" stroke-width="2" />
            <line x1="-237" y1="-83" x2="-201" y2="-70" stroke="#555" stroke-width="2" />
            <line x1="-216" y1="-125" x2="-183" y2="-106" stroke="#555" stroke-width="2" />
            <line x1="-166" y1="-186" x2="-141" y2="-158" stroke="#555" stroke-width="2" />
            <line x1="-87" y1="-237" x2="-74" y2="-201" stroke="#555" stroke-width="2" />
        </g>
        
        <!-- Tire -->
        <circle cx="0" cy="0" r="250" stroke="#333" stroke-width="3" fill="none" />
        
        <!-- Tread area -->
        <circle cx="0" cy="0" r="250" fill="#ddd" opacity="0.2" />
        
        <!-- Rim -->
        <circle cx="0" cy="0" r="100" fill="#888" />
        
        <!-- Rim details -->
        <circle cx="0" cy="0" r="85" fill="none" stroke="#777" stroke-width="2" />
        <circle cx="0" cy="0" r="70" fill="none" stroke="#777" stroke-width="2" />
        
        <!-- Rim spokes -->
        <line x1="0" y1="0" x2="0" y2="-95" stroke="#777" stroke-width="5" />
        <line x1="0" y1="0" x2="67" y2="-67" stroke="#777" stroke-width="5" />
        <line x1="0" y1="0" x2="95" y2="0" stroke="#777" stroke-width="5" />
        <line x1="0" y1="0" x2="67" y2="67" stroke="#777" stroke-width="5" />
        <line x1="0" y1="0" x2="0" y2="95" stroke="#777" stroke-width="5" />
        <line x1="0" y1="0" x2="-67" y2="67" stroke="#777" stroke-width="5" />
        <line x1="0" y1="0" x2="-95" y2="0" stroke="#777" stroke-width="5" />
        <line x1="0" y1="0" x2="-67" y2="-67" stroke="#777" stroke-width="5" />
        
        <!-- Center hub -->
        <circle cx="0" cy="0" r="20" fill="#666" />
        <circle cx="0" cy="0" r="15" fill="#555" />
        <circle cx="0" cy="0" r="10" fill="#444" />
    </g>
    
    <!-- Sensors (placed outside of rotation group to stay fixed) -->
    <!-- Tread Left (Showing damage) -->
    <circle cx="175" cy="175" r="30" class="critical-sensor" fill="#f44336" />
    <text x="175" y="175" font-family="Arial" font-size="16" font-weight="bold" text-anchor="middle" dominant-baseline="middle" fill="#fff" class="critical-text">1</text>
    <text x="175" y="220" font-family="Arial" font-size="14" text-anchor="middle" fill="#333">1.45</text>
    
    <!-- Tread Right (Warning) -->
    <circle cx="425" cy="175" r="25" class="warning-sensor" fill="#ff9800" />
    <text x="425" y="175" font-family="Arial" font-size="16" font-weight="bold" text-anchor="middle" dominant-baseline="middle" fill="#fff">2</text>
    <text x="425" y="220" font-family="Arial" font-size="14" text-anchor="middle" fill="#333">1.18</text>
    
    <!-- Sidewall (Critical) -->
    <circle cx="300" cy="75" r="30" class="critical-sensor" fill="#f44336" />
    <text x="300" y="75" font-family="Arial" font-size="16" font-weight="bold" text-anchor="middle" dominant-baseline="middle" fill="#fff" class="critical-text">3</text>
    <text x="300" y="120" font-family="Arial" font-size="14" text-anchor="middle" fill="#333">1.38</text>
    
    <!-- Bead (Normal) -->
    <circle cx="300" cy="200" r="25" fill="#4caf50" />
    <text x="300" y="200" font-family="Arial" font-size="16" font-weight="bold" text-anchor="middle" dominant-baseline="middle" fill="#fff">4</text>
    <text x="300" y="245" font-family="Arial" font-size="14" text-anchor="middle" fill="#333">1.05</text>
    
    <!-- Alert Box -->
    <g class="alert-box">
        <rect x="120" y="480" width="360" height="80" rx="10" fill="#fff" stroke="#f44336" stroke-width="2" />
        <text x="300" y="510" font-family="Arial" font-size="18" font-weight="bold" text-anchor="middle" fill="#f44336">ALERT: CRITICAL SIDEWALL DAMAGE</text>
        <text x="300" y="540" font-family="Arial" font-size="14" text-anchor="middle" fill="#333">Reduce speed immediately. Schedule urgent tire replacement.</text>
    </g>
    
    <!-- Legend -->
    <g transform="translate(300, 400)">
        <rect x="-100" y="0" width="200" height="60" rx="5" fill="#fff" stroke="#ddd" />
        
        <circle cx="-70" cy="20" r="10" fill="#4caf50" />
        <text x="-50" y="25" font-family="Arial" font-size="14" text-anchor="start" fill="#333">Normal (< 1.1)</text>
        
        <circle cx="-70" cy="45" r="10" fill="#ff9800" />
        <text x="-50" y="50" font-family="Arial" font-size="14" text-anchor="start" fill="#333">Warning (1.1 - 1.3)</text>
        
        <circle cx="20" cy="20" r="10" fill="#f44336" />
        <text x="40" y="25" font-family="Arial" font-size="14" text-anchor="start" fill="#333">Critical (> 1.3)</text>
    </g>
</svg>
